<svg width="86" height="34" viewBox="0 0 86 34" fill="none" xmlns="http://www.w3.org/2000/svg">
<path d="M41.5506 17.1573C41.5506 8.08618 34.289 0.730331 25.3341 0.730331C16.3793 0.73033 9.11768 8.08618 9.11768 17.1573L-7.18046e-07 17.1573C-7.18046e-07 17.1573 5.76367 33.5843 25.3341 33.5843C34.289 33.5843 41.5506 26.2284 41.5506 17.1573ZM25.3341 11.7476C28.2648 11.7476 30.6745 14.1556 30.6745 17.1573C30.6745 20.126 28.2974 22.567 25.3341 22.567C22.4034 22.567 19.9938 20.159 19.9938 17.1573C19.9938 14.1886 22.4034 11.7476 25.3341 11.7476Z" fill="#5E93E7"/>
<path d="M44.4494 17.1573C44.4494 26.2285 51.711 33.5843 60.6659 33.5843C69.6207 33.5843 76.8823 26.2285 76.8823 17.1573L86 17.1573C86 17.1573 80.2363 0.730366 60.6659 0.730366C51.711 0.730366 44.4494 8.08622 44.4494 17.1573ZM60.6659 22.567C57.7352 22.567 55.3255 20.1591 55.3255 17.1573C55.3255 14.1886 57.7026 11.7477 60.6659 11.7477C63.5966 11.7477 66.0062 14.1556 66.0062 17.1573C66.0062 20.1261 63.5966 22.567 60.6659 22.567Z" fill="#B3CDF8"/>
</svg>
